<svg xmlns="http://www.w3.org/2000/svg" xmlns:xlink="http://www.w3.org/1999/xlink" width="800" height="800" viewBox="0 0 800 800">
  <defs>
    <style>
      .cls-1, .cls-4 {
        fill: #0072ff;
      }

      .cls-1, .cls-2, .cls-3 {
        stroke: #fff;
        stroke-width: 2.51px;
      }

      .cls-2, .cls-3 {
        fill-rule: evenodd;
      }

      .cls-2 {
        filter: url(#filter);
      }

      .cls-3 {
        fill: #fff;
      }

      .cls-4 {
        font-size: 131.75px;
        text-anchor: middle;
        font-family: Varsity-Regular, "Varsity Regular";
        text-transform: uppercase;
      }
    </style>
    <filter id="filter" x="174.469" y="24.719" width="484.531" height="587.875" filterUnits="userSpaceOnUse">
      <feFlood result="flood" flood-color="#0072ff"/>
      <feComposite result="composite" operator="in" in2="SourceGraphic"/>
      <feBlend result="blend" in2="SourceGraphic"/>
    </filter>
  </defs>
  <rect class="cls-1" x="118" y="461" width="112" height="61"/>
  <g style="fill: ; filter: url(#filter)">
    <path id="path" class="cls-2" d="M643.856,229.961h-27.92v312.1c0,38.951-28.7,70.527-64.1,70.527H286.35c-35.4,0-64.1-31.576-64.1-70.527v-312.1H189.6c-8.363,0-15.142-7.459-15.142-16.66s6.779-16.66,15.142-16.66H222.25V151.393H615.936v45.248h27.92c8.362,0,15.141,7.459,15.141,16.66S652.218,229.961,643.856,229.961ZM280.453,69.4h112.4V48.237c0-12.984,9.566-23.509,21.366-23.509h17.834c11.8,0,21.367,10.526,21.367,23.509V69.4h99.582c33.45,0,60.567,29.836,60.567,66.64H219.886C219.886,99.231,247,69.4,280.453,69.4Z" style="stroke: inherit; filter: none; fill: inherit"/>
  </g>
  <use xlink:href="#path" style="stroke: #fff; filter: none; fill: none"/>
  <path id="Polygon_1" data-name="Polygon 1" class="cls-3" d="M360.015,431.988l2.1-149,128.881,76.3Z"/>
  <text id="Dunner" class="cls-4" x="418.566" y="734.959"><tspan x="418.566">Dunner</tspan></text>
  <rect x="41" y="465" width="69" height="6"/>
  <rect id="Rectangle_2_copy" data-name="Rectangle 2 copy" x="41" y="486" width="69" height="6"/>
  <rect id="Rectangle_2_copy_2" data-name="Rectangle 2 copy 2" x="41" y="510" width="69" height="6"/>
</svg>
