<svg id="Layer_1" data-name="Layer 1" xmlns="http://www.w3.org/2000/svg" xmlns:xlink="http://www.w3.org/1999/xlink" viewBox="0 0 75.87 57.91"><defs><style>.cls-1{fill:url(#linear-gradient);}.cls-2{fill:url(#linear-gradient-2);}.cls-3{fill:url(#linear-gradient-3);}.cls-4{fill:url(#linear-gradient-4);}.cls-5{fill:#fff;}.cls-6{fill:url(#linear-gradient-5);}.cls-7{fill:url(#linear-gradient-6);}.cls-8{fill:url(#linear-gradient-7);}.cls-9{fill:url(#linear-gradient-8);}.cls-10{fill:url(#linear-gradient-9);}.cls-11{fill:url(#linear-gradient-10);}.cls-12{fill:url(#linear-gradient-11);}.cls-13{fill:url(#linear-gradient-12);}.cls-14{fill:url(#linear-gradient-13);}.cls-15{fill:url(#linear-gradient-14);}.cls-16{fill:url(#linear-gradient-15);}.cls-17{fill:url(#linear-gradient-16);}.cls-18{fill:url(#linear-gradient-17);}.cls-19{fill:url(#linear-gradient-18);}.cls-20{fill:url(#linear-gradient-19);}.cls-21{fill:url(#linear-gradient-20);}.cls-22{fill:url(#linear-gradient-22);}.cls-23{fill:url(#linear-gradient-23);}.cls-24{fill:url(#linear-gradient-24);}.cls-25{fill:url(#linear-gradient-25);}.cls-26{fill:url(#linear-gradient-26);}.cls-27{fill:url(#linear-gradient-27);}</style><linearGradient id="linear-gradient" x1="323.63" y1="271.41" x2="366" y2="271.41" gradientUnits="userSpaceOnUse"><stop offset="0" stop-color="#b721ff"/><stop offset="0.11" stop-color="#af2aff"/><stop offset="0.29" stop-color="#9a44ff"/><stop offset="0.53" stop-color="#776dfe"/><stop offset="0.8" stop-color="#47a6fe"/><stop offset="0.99" stop-color="#21d4fd"/></linearGradient><linearGradient id="linear-gradient-2" x1="307.13" y1="259.35" x2="322.49" y2="259.35" xlink:href="#linear-gradient"/><linearGradient id="linear-gradient-3" x1="367.5" y1="260.75" x2="383" y2="260.75" xlink:href="#linear-gradient"/><linearGradient id="linear-gradient-4" x1="326.99" y1="249.89" x2="334.13" y2="249.89" xlink:href="#linear-gradient"/><linearGradient id="linear-gradient-5" x1="317.17" y1="290.78" x2="329.15" y2="290.78" xlink:href="#linear-gradient"/><linearGradient id="linear-gradient-6" x1="367.51" y1="283.01" x2="381" y2="283.01" xlink:href="#linear-gradient"/><linearGradient id="linear-gradient-7" x1="330.21" y1="292.43" x2="336.83" y2="292.43" xlink:href="#linear-gradient"/><linearGradient id="linear-gradient-8" x1="358.86" y1="291.95" x2="367.21" y2="291.95" xlink:href="#linear-gradient"/><linearGradient id="linear-gradient-9" x1="308.59" y1="268.92" x2="322.5" y2="268.92" xlink:href="#linear-gradient"/><linearGradient id="linear-gradient-10" x1="367.51" y1="268.89" x2="380.38" y2="268.89" xlink:href="#linear-gradient"/><linearGradient id="linear-gradient-11" x1="336.6" y1="251.61" x2="340.38" y2="251.61" xlink:href="#linear-gradient"/><linearGradient id="linear-gradient-12" x1="311.18" y1="278.82" x2="322.5" y2="278.82" xlink:href="#linear-gradient"/><linearGradient id="linear-gradient-13" x1="367.5" y1="273.88" x2="376.82" y2="273.88" xlink:href="#linear-gradient"/><linearGradient id="linear-gradient-14" x1="336.59" y1="289.52" x2="340.4" y2="289.52" xlink:href="#linear-gradient"/><linearGradient id="linear-gradient-15" x1="326.66" y1="253.82" x2="330.41" y2="253.82" xlink:href="#linear-gradient"/><linearGradient id="linear-gradient-16" x1="315.31" y1="273.86" x2="322.48" y2="273.86" xlink:href="#linear-gradient"/><linearGradient id="linear-gradient-17" x1="357.84" y1="252.99" x2="367.26" y2="252.99" xlink:href="#linear-gradient"/><linearGradient id="linear-gradient-18" x1="344.21" y1="254.6" x2="344.39" y2="254.6" xlink:href="#linear-gradient"/><linearGradient id="linear-gradient-19" x1="355.47" y1="266.13" x2="355.67" y2="266.13" xlink:href="#linear-gradient"/><linearGradient id="linear-gradient-20" x1="329.03" y1="271.38" x2="361" y2="271.38" xlink:href="#linear-gradient"/><linearGradient id="linear-gradient-22" x1="360.24" y1="263.09" x2="362.39" y2="263.09" xlink:href="#linear-gradient"/><linearGradient id="linear-gradient-23" x1="338.99" y1="249.89" x2="346.13" y2="249.89" gradientTransform="matrix(-1, 0, 0, 1, 689.11, 0)" xlink:href="#linear-gradient"/><linearGradient id="linear-gradient-24" x1="347.66" y1="253.82" x2="351.41" y2="253.82" xlink:href="#linear-gradient"/><linearGradient id="linear-gradient-25" x1="352.6" y1="251.24" x2="356.38" y2="251.24" xlink:href="#linear-gradient"/><linearGradient id="linear-gradient-26" x1="347.21" y1="292.43" x2="353.83" y2="292.43" gradientTransform="matrix(-1, 0, 0, 1, 696.61, 0)" xlink:href="#linear-gradient"/><linearGradient id="linear-gradient-27" x1="341.59" y1="289.52" x2="345.4" y2="289.52" gradientTransform="matrix(-1, 0, 0, 1, 696.61, 0)" xlink:href="#linear-gradient"/></defs><title>logo</title><path class="cls-1" d="M366,260.93c0-1.09-1.27-1.9-3.09-1.9H343.17c-5.47,0-10.95,0-16.42,0-1.71,0-3.06.8-3.07,1.8,0,3.59,0,7.18,0,10.77,0,3.28.05,6.56-.08,9.84-.06,1.45,1.44,2.38,4,2.36,8.61-.06,17.22,0,25.83,0h9.32c1.5,0,3-.74,3.07-1.47s.1-1.47.1-2.21Q366,270.51,366,260.93Zm-2.74,20.5c0,.57-.31.74-1.27.73q-17.14,0-34.3,0c-1.06,0-1.32-.24-1.31-.79,0-1,0-2.07,0-3.1l0-11.36c0-1.83,0-3.66,0-5.5,0-.81.05-.83,1.4-.83h26.81l1.2,0c2.07,0,4.14,0,6.21,0,1,0,1.26.2,1.26.76Q363.21,271.39,363.25,281.43Z" transform="translate(-307.13 -241.92)"/><path class="cls-2" d="M318.43,264.49h-3.16a3.32,3.32,0,0,1-3.21-2,3,3,0,0,1-.15-.31,1.62,1.62,0,0,0-1.83-1.4,2.91,2.91,0,0,1-2.79-2.26,3.07,3.07,0,0,1,.94-3.36,3.23,3.23,0,0,1,4.63.11,3.3,3.3,0,0,1-.07,4.64.65.65,0,0,0-.18.86c0,.06.06.11.08.16a3.18,3.18,0,0,0,3.75,2.44c1.82-.16,3.67,0,5.5-.05.47,0,.57.18.55.59s0,.66-.55.64c-1.17,0-2.34,0-3.51,0Zm-9.64-7a1.71,1.71,0,0,0,1.65,1.76,1.77,1.77,0,0,0,1.73-1.71,1.75,1.75,0,0,0-1.71-1.66A1.58,1.58,0,0,0,308.79,257.47Z" transform="translate(-307.13 -241.92)"/><path class="cls-3" d="M383,260.34a3.49,3.49,0,0,0-.81-2.28,3.31,3.31,0,0,0-3.92-.74,3.22,3.22,0,0,0-1.77,3.45.63.63,0,0,1-.39.78c-.65.35-1.31.67-1.93,1.08a3.61,3.61,0,0,1-1.31.56,23.21,23.21,0,0,1-2.63.1c-.78.07-1.56-.05-2.34.06-.61.09-.31.51-.36.8s.21.38.48.38h4a4.79,4.79,0,0,0,2.3-.61c.78-.42,1.59-.83,2.36-1.28a.6.6,0,0,1,.86.08,3.11,3.11,0,0,0,1.3.76A3.31,3.31,0,0,0,383,260.34ZM379.73,262a1.69,1.69,0,1,1,0-3.38,1.69,1.69,0,0,1,0,3.38Z" transform="translate(-307.13 -241.92)"/><path class="cls-4" d="M334.12,249.63a2.43,2.43,0,0,0-.71-1.81.78.78,0,0,1-.15-1.1,3.29,3.29,0,1,0-5.91-2.89,3.12,3.12,0,0,0,.49,3.59,3.23,3.23,0,0,0,3.73.87c.4-.18.58,0,.82.22a2,2,0,0,1,.54,1.5c0,1.17,0,2.34,0,3.51s0,2.54,0,3.81c0,.56.29.52.66.53s.56-.05.56-.5C334.1,254.78,334.11,252.21,334.12,249.63ZM330.28,247a1.75,1.75,0,0,1-1.64-1.68,1.68,1.68,0,0,1,3.36,0A1.73,1.73,0,0,1,330.28,247Z" transform="translate(-307.13 -241.92)"/><path class="cls-5" d="M332,245.24a1.73,1.73,0,0,1-1.72,1.71,1.75,1.75,0,0,1-1.64-1.68,1.68,1.68,0,0,1,3.36,0Z" transform="translate(-307.13 -241.92)"/><path class="cls-6" d="M329.15,286.6h0v-.83c0-1.07.09-.79-.88-.83-.28,0-.37.07-.36.35,0,.66,0,1.33,0,2a1.69,1.69,0,0,1-1,1.79c-1.09.57-2.17,1.16-3.22,1.79a.75.75,0,0,1-1.09-.08,3.2,3.2,0,0,0-4.19,0,3.28,3.28,0,0,0-.81,4.12,3.32,3.32,0,0,0,4.08,1.5,3.21,3.21,0,0,0,2.06-3.65.61.61,0,0,1,.4-.77c1.2-.64,2.39-1.32,3.59-2a2.58,2.58,0,0,0,1.44-2.49ZM320.47,295a1.63,1.63,0,0,1-1.63-1.7,1.67,1.67,0,1,1,3.33,0A1.6,1.6,0,0,1,320.47,295Z" transform="translate(-307.13 -241.92)"/><path class="cls-5" d="M322.17,293.33a1.6,1.6,0,0,1-1.7,1.68,1.63,1.63,0,0,1-1.63-1.7,1.67,1.67,0,1,1,3.33,0Z" transform="translate(-307.13 -241.92)"/><path class="cls-7" d="M380.21,282.42a3.15,3.15,0,0,0-3.48-1.06c-.29.08-.45.06-.62-.22-.32-.53-.72-1-1-1.55a2.72,2.72,0,0,0-2.49-1.37h-2.22v0c-.81,0-1.61,0-2.4,0s-.39.43-.44.72.07.52.48.51c1.07,0,2.15,0,3.22,0,2.54,0,2.14-.18,3.65,2a1,1,0,0,1,0,1.37A3.3,3.3,0,1,0,380.6,286,3.11,3.11,0,0,0,380.21,282.42Zm-2.56,3.74a1.6,1.6,0,0,1-1.64-1.68,1.63,1.63,0,0,1,1.68-1.64,1.59,1.59,0,0,1,1.64,1.67A1.62,1.62,0,0,1,377.65,286.16Z" transform="translate(-307.13 -241.92)"/><path class="cls-8" d="M334.54,293.4a.54.54,0,0,1-.43-.62q0-3.43,0-6.85c0-.81,0-.78-.81-.88-.38-.05-.45,0-.44.38,0,1.21,0,2.42,0,3.63s0,2.3,0,3.46a.84.84,0,0,1-.64,1,3.22,3.22,0,0,0-2,3.59,3.31,3.31,0,0,0,6.48.2A3.26,3.26,0,0,0,334.54,293.4Zm-1,4.8a1.73,1.73,0,0,1-1.71-1.66,1.77,1.77,0,0,1,1.72-1.72,1.7,1.7,0,0,1,1.65,1.71A1.65,1.65,0,0,1,333.52,298.2Z" transform="translate(-307.13 -241.92)"/><path class="cls-5" d="M335.18,296.53a1.65,1.65,0,0,1-1.66,1.67,1.73,1.73,0,0,1-1.71-1.66,1.77,1.77,0,0,1,1.72-1.72A1.7,1.7,0,0,1,335.18,296.53Z" transform="translate(-307.13 -241.92)"/><path class="cls-9" d="M366.92,295.39a2.41,2.41,0,0,0-3.12-1,.66.66,0,0,1-.86-.12c-.72-.66-1.45-1.31-2.2-1.93a1.73,1.73,0,0,1-.66-1.48c0-.86,0-1.72,0-2.58s0-1.92,0-2.87c0-.64-.42-.39-.72-.44s-.51,0-.5.46c0,1.78.05,3.56,0,5.33a2.88,2.88,0,0,0,1,2.45c.79.69,1.58,1.39,2.38,2.07a.58.58,0,0,1,.23.7,2.24,2.24,0,0,0,.31,2,2.43,2.43,0,0,0,4.15-2.52Zm-2.15,2.24a1,1,0,0,1-1.07-1.06,1,1,0,0,1,1.15-1.1,1.11,1.11,0,0,1,1,1.06A1.09,1.09,0,0,1,364.77,297.63Z" transform="translate(-307.13 -241.92)"/><path class="cls-5" d="M349.89,296.53a1.09,1.09,0,0,1-1.12,1.1,1,1,0,0,1-1.07-1.06,1,1,0,0,1,1.15-1.1A1.11,1.11,0,0,1,349.89,296.53Z" transform="translate(-307.13 -241.92)"/><path class="cls-10" d="M322.49,269c0-.38.05-.78-.56-.64-2.51,0-5,0-7.55,0a1,1,0,0,1-1-.59,2.48,2.48,0,0,0-4.12-.43,2.53,2.53,0,0,0,1.94,4.19,2.37,2.37,0,0,0,2.3-1.52.66.66,0,0,1,.73-.46c2.57,0,5.14,0,7.72,0C322.38,269.59,322.52,269.39,322.49,269Zm-11.38,1.21a1.22,1.22,0,0,1-1.16-1.23,1.18,1.18,0,0,1,1.22-1.21,1.24,1.24,0,0,1,1.24,1.25A1.29,1.29,0,0,1,311.11,270.16Z" transform="translate(-307.13 -241.92)"/><path class="cls-5" d="M312.41,269a1.29,1.29,0,0,1-1.3,1.19,1.22,1.22,0,0,1-1.16-1.23,1.18,1.18,0,0,1,1.22-1.21A1.24,1.24,0,0,1,312.41,269Z" transform="translate(-307.13 -241.92)"/><path class="cls-11" d="M378.58,266.55a2.38,2.38,0,0,0-2.78,1.3.61.61,0,0,1-.66.41c-.84,0-1.68,0-2.52,0-1.55,0-3.09,0-4.63,0-.72,0-.41.51-.46.83s.09.46.46.45c1.19,0,2.38,0,3.57,0h0c1.16,0,2.31,0,3.46,0a.73.73,0,0,1,.81.47,2.32,2.32,0,0,0,2.39,1.34,2.41,2.41,0,0,0,2.15-2.2A2.37,2.37,0,0,0,378.58,266.55Zm-.51,3.42a1.09,1.09,0,0,1-1.2-1.05,1.1,1.1,0,1,1,1.2,1.05Z" transform="translate(-307.13 -241.92)"/><path class="cls-12" d="M339.36,245.5a1.87,1.87,0,0,0-2.46.68,1.77,1.77,0,0,0,.6,2.56.7.7,0,0,1,.38.7c0,1.31,0,2.62,0,3.93h0v4c0,.16-.08.36.12.47a.73.73,0,0,0,1.11-.61c0-2.59,0-5.19,0-7.79,0-.37.05-.68.48-.8s.45-.36.58-.62A1.85,1.85,0,0,0,339.36,245.5Zm-.9,2.32a.81.81,0,0,1-.77-.7.66.66,0,0,1,.69-.62c.46,0,.8.29.76.69A.63.63,0,0,1,338.46,247.82Z" transform="translate(-307.13 -241.92)"/><path class="cls-5" d="M339.14,247.19a.63.63,0,0,1-.68.63.81.81,0,0,1-.77-.7.66.66,0,0,1,.69-.62C338.84,246.51,339.18,246.79,339.14,247.19Z" transform="translate(-307.13 -241.92)"/><path class="cls-13" d="M322.5,278.9c0-.44-.05-.67-.59-.66-2,0-3.94,0-5.92,0-.1-.21-.19-.42-.3-.63a2.37,2.37,0,0,0-2.81-1.1,2.39,2.39,0,0,0,.56,4.68,2.41,2.41,0,0,0,2.53-1.75c2,0,3.95,0,5.92,0C322.31,279.47,322.52,279.4,322.5,278.9Zm-8.84,1a1.1,1.1,0,0,1-1.13-1.08,1.07,1.07,0,0,1,1-1.11,1.1,1.1,0,1,1,.09,2.19Z" transform="translate(-307.13 -241.92)"/><path class="cls-5" d="M314.73,278.81a1.14,1.14,0,0,1-1.07,1.11,1.1,1.1,0,0,1-1.13-1.08,1.07,1.07,0,0,1,1-1.11A1.15,1.15,0,0,1,314.73,278.81Z" transform="translate(-307.13 -241.92)"/><path class="cls-14" d="M375.54,272.08a1.85,1.85,0,0,0-2.19.79.78.78,0,0,1-.76.39H368c-.31,0-.61,0-.51.44s-.19.86.55.81,1.51,0,2.28,0h2.28a.7.7,0,0,1,.7.38,1.83,1.83,0,0,0,2.12.82,1.87,1.87,0,0,0,1.37-1.83A1.9,1.9,0,0,0,375.54,272.08Zm-.65,2.44a.59.59,0,0,1-.61-.69.59.59,0,0,1,.65-.6.6.6,0,0,1,.64.69A.59.59,0,0,1,374.89,274.52Z" transform="translate(-307.13 -241.92)"/><path class="cls-15" d="M339.12,287.77c0,.45,0,.9,0,1.35a1.78,1.78,0,0,0,.72,1.84,1.78,1.78,0,0,1,0,2.61,1.91,1.91,0,0,1-2.69,0,1.7,1.7,0,0,1,0-2.53,2,2,0,0,0,.71-1.86c0-1.25,0-2.5,0-3.75,0-.77.53-.4.85-.48s.4.22.4.49C339.11,286.21,339.12,287,339.12,287.77Zm-.7,3.8a.67.67,0,0,0-.57.72.61.61,0,0,0,.65.61.61.61,0,0,0,.64-.67C339.12,291.82,338.87,291.61,338.42,291.57Z" transform="translate(-307.13 -241.92)"/><path class="cls-16" d="M330,250.4a1.93,1.93,0,0,0-2.72-.12,1.85,1.85,0,0,0,0,2.72,1.45,1.45,0,0,1,.63,1.52c0,.35,0,.7,0,1,0,.57,0,1.13,0,1.7s.1.62.58.6.7,0,.68-.58c0-1.05,0-2.11,0-3.16a1,1,0,0,1,.5-1A1.86,1.86,0,0,0,330,250.4Zm-1.44,1.88c-.37,0-.63-.21-.62-.61s.1-.71.58-.7a.63.63,0,0,1,.69.64C329.19,252,329,252.25,328.52,252.28Z" transform="translate(-307.13 -241.92)"/><path class="cls-5" d="M329.17,251.61c0,.41-.22.64-.65.67s-.63-.21-.62-.61.1-.71.58-.7A.63.63,0,0,1,329.17,251.61Z" transform="translate(-307.13 -241.92)"/><path class="cls-17" d="M320.65,274.45a4.68,4.68,0,0,1-.53,0,1.5,1.5,0,0,0-1.61.68,1.69,1.69,0,0,1-2.31.31,1.89,1.89,0,0,1-.78-2.25,2,2,0,0,1,2.06-1.22,1.62,1.62,0,0,1,1.35,1,.56.56,0,0,0,.6.33c.86,0,1.72,0,2.57,0,.54,0,.47.31.48.64s0,.61-.49.57S321.1,274.45,320.65,274.45Zm-2.81-.58a.59.59,0,0,0-.59-.66.6.6,0,0,0-.7.62.6.6,0,0,0,.66.66A.59.59,0,0,0,317.84,273.87Z" transform="translate(-307.13 -241.92)"/><path class="cls-18" d="M366.94,249.54h0a2.46,2.46,0,0,0-4.21-.46,2.2,2.2,0,0,0-.57,1.84.61.61,0,0,1-.36.69c-.92.52-1.82,1-2.72,1.59a2.12,2.12,0,0,0-1.07,1.4,1.2,1.2,0,0,0-.17.72c0,.66,0,1.33,0,2,0,.45.12.6.55.55s.73.11.71-.52a8.87,8.87,0,0,1,.11-2.62h0a.2.2,0,0,1,.18-.25c.54-.32,1.08-.64,1.6-1a3.83,3.83,0,0,0,1.26-.91c.17-.23.53-.17.8,0,1.55.91,2.24.86,3.53-.25A2.26,2.26,0,0,0,366.94,249.54Zm-1.42,2.09a1.13,1.13,0,0,0-.22.08,1.1,1.1,0,0,1-1.3-.06,1.11,1.11,0,0,1-.48-1.21c0-.13,0-.27,0-.4,0-.3.3-.34.47-.49a1.69,1.69,0,0,1,1.5.14h0l.13.12.11.12h0c.07.2.15.4.23.6C366.14,251,365.7,251.28,365.52,251.63Z" transform="translate(-307.13 -241.92)"/><path class="cls-5" d="M350.52,251.63a1.13,1.13,0,0,0-.22.08,1.1,1.1,0,0,1-1.3-.06,1.11,1.11,0,0,1-.48-1.21c0-.13,0-.27,0-.4,0-.3.3-.34.47-.49a1.69,1.69,0,0,1,1.5.14h0l.13.12.11.12h0c.07.2.15.4.23.6C351.14,251,350.7,251.28,350.52,251.63Z" transform="translate(-307.13 -241.92)"/><path class="cls-19" d="M344.39,254.47a.34.34,0,0,1-.18.25A.2.2,0,0,1,344.39,254.47Z" transform="translate(-307.13 -241.92)"/><path class="cls-20" d="M355.64,265.79c0,.07,0,.17-.1.32a.4.4,0,0,0,0,.37.4.4,0,0,1,.05-.37C355.68,266,355.7,265.85,355.64,265.79Z" transform="translate(-307.13 -241.92)"/><path class="cls-21" d="M358.51,264.44a3.09,3.09,0,0,0-1-.08c-8.27,0-16.55,0-24.82,0-1.54,0-3,.23-3.51,1a4.27,4.27,0,0,0-.12.7V272c0,1.66,0,3.32,0,5,0,.8,1.19,1.4,2.88,1.4h25.93c1.8,0,3.1-.55,3.13-1.32q0-5.69,0-11.37C361,265,360.09,264.62,358.51,264.44Zm-.22,1.67a.38.38,0,0,0-.05.37.38.38,0,0,1,0-.37c.14-.15.16-.25.11-.32S358.44,266,358.29,266.11Z" transform="translate(-307.13 -241.92)"/><path class="cls-20" d="M355.55,266.11a.4.4,0,0,0-.05.37.4.4,0,0,1,0-.37c.12-.15.14-.25.1-.32S355.68,266,355.55,266.11Z" transform="translate(-307.13 -241.92)"/><path class="cls-22" d="M362.39,263.08a1.08,1.08,0,0,1-2.15.05,1.1,1.1,0,0,1,1.09-1.13A1.08,1.08,0,0,1,362.39,263.08Z" transform="translate(-307.13 -241.92)"/><path class="cls-23" d="M343,257.36c0,.45.17.52.55.5s.68,0,.66-.53c0-1.27,0-2.54,0-3.81s0-2.34,0-3.51a2,2,0,0,1,.54-1.5.6.6,0,0,1,.83-.22,3.24,3.24,0,0,0,3.73-.87,3.15,3.15,0,0,0,.49-3.59,3.29,3.29,0,1,0-5.92,2.89.78.78,0,0,1-.14,1.1,2.36,2.36,0,0,0-.71,1.81C343,252.21,343,254.78,343,257.36Zm2.12-12.12a1.68,1.68,0,0,1,3.36,0,1.68,1.68,0,1,1-3.36,0Z" transform="translate(-307.13 -241.92)"/><path class="cls-24" d="M351,250.4a1.93,1.93,0,0,0-2.72-.12,1.85,1.85,0,0,0,0,2.72,1.45,1.45,0,0,1,.63,1.52c0,.35,0,.7,0,1,0,.57,0,1.13,0,1.7s.1.62.58.6.7,0,.68-.58c0-1.05,0-2.11,0-3.16a1,1,0,0,1,.5-1A1.86,1.86,0,0,0,351,250.4Zm-1.44,1.88c-.37,0-.63-.21-.62-.61s.1-.71.58-.7a.63.63,0,0,1,.69.64C350.19,252,350,252.25,349.52,252.28Z" transform="translate(-307.13 -241.92)"/><path class="cls-25" d="M355.36,245.13a1.87,1.87,0,0,0-2.46.68,1.78,1.78,0,0,0,.6,2.57.69.69,0,0,1,.38.69c0,1.31,0,2.62,0,3.93h0v4c0,.17-.08.36.12.48a.73.73,0,0,0,1.11-.61c0-2.6,0-5.2,0-7.79,0-.38.05-.69.48-.8a1,1,0,0,0,.58-.62A1.86,1.86,0,0,0,355.36,245.13Zm-.9,2.32a.81.81,0,0,1-.77-.7.66.66,0,0,1,.69-.62c.46,0,.8.29.76.7A.62.62,0,0,1,354.46,247.45Z" transform="translate(-307.13 -241.92)"/><path class="cls-26" d="M342.88,297.28a3.31,3.31,0,0,0,3.7,2.52,3.37,3.37,0,0,0,2.78-2.72,3.23,3.23,0,0,0-2-3.59.84.84,0,0,1-.64-1c0-1.16,0-2.31,0-3.46s0-2.42,0-3.63c0-.35-.06-.43-.44-.38-.8.1-.8.07-.8.88,0,2.28,0,4.56,0,6.85a.54.54,0,0,1-.42.62A3.24,3.24,0,0,0,342.88,297.28Zm1.55-.75a1.71,1.71,0,0,1,1.65-1.71,1.77,1.77,0,0,1,1.72,1.72,1.72,1.72,0,0,1-1.7,1.66A1.66,1.66,0,0,1,344.43,296.53Z" transform="translate(-307.13 -241.92)"/><path class="cls-27" d="M352.5,285.43c0-.27-.06-.6.39-.49s.88-.29.85.48c0,1.25,0,2.5,0,3.75a2,2,0,0,0,.72,1.86,1.71,1.71,0,0,1,0,2.53,1.91,1.91,0,0,1-2.69,0,1.78,1.78,0,0,1,0-2.61,1.78,1.78,0,0,0,.72-1.84c0-.45,0-.9,0-1.35Zm0,6.8a.65.65,0,0,0,1.29.06.67.67,0,0,0-.57-.72C352.74,291.61,352.49,291.82,352.47,292.23Z" transform="translate(-307.13 -241.92)"/><rect class="cls-5" x="24.37" y="24.08" width="2" height="11" rx="1" ry="1"/><rect class="cls-5" x="33.87" y="24.08" width="2" height="11" rx="1" ry="1"/><rect class="cls-5" x="28.87" y="24.08" width="2" height="11" rx="1" ry="1"/><rect class="cls-5" x="38.87" y="24.08" width="2" height="11" rx="1" ry="1"/><rect class="cls-5" x="42.87" y="24.08" width="2" height="11" rx="1" ry="1"/><rect class="cls-5" x="46.87" y="24.08" width="2" height="11" rx="1" ry="1"/><rect class="cls-5" x="50.87" y="24.08" width="2" height="11" rx="1" ry="1"/></svg>