<?xml version="1.0" standalone="no"?>
<!DOCTYPE svg PUBLIC "-//W3C//DTD SVG 20010904//EN"
 "http://www.w3.org/TR/2001/REC-SVG-20010904/DTD/svg10.dtd">
<svg version="1.0" xmlns="http://www.w3.org/2000/svg"
 width="1200.000000pt" height="1200.000000pt" viewBox="0 0 1200.000000 1200.000000"
 preserveAspectRatio="xMidYMid meet">

<g transform="translate(0.000000,1200.000000) scale(0.100000,-0.100000)"
fill="#000000" stroke="none">
<path d="M5637 10234 c-645 -61 -1206 -237 -1762 -552 -549 -312 -1078 -813
-1439 -1366 -145 -222 -294 -512 -395 -770 -387 -984 -387 -2108 0 -3092 62
-158 193 -432 275 -575 174 -305 428 -633 691 -894 649 -644 1469 -1055 2373
-1189 791 -117 1617 -5 2345 319 744 331 1390 882 1839 1570 145 221 294 511
395 769 387 984 387 2108 0 3092 -62 158 -193 432 -275 575 -264 462 -666 920
-1099 1252 -577 442 -1244 724 -1965 831 -306 45 -698 58 -983 30z m888 -113
c284 -41 506 -90 732 -162 789 -252 1481 -732 2003 -1388 414 -522 703 -1159
825 -1822 54 -299 59 -360 59 -749 0 -389 -5 -450 -59 -749 -182 -990 -715
-1875 -1513 -2510 -520 -414 -1161 -704 -1823 -826 -299 -54 -360 -59 -749
-59 -389 0 -450 5 -749 59 -492 91 -964 270 -1396 530 -568 342 -1056 829
-1400 1395 -268 439 -448 912 -540 1411 -54 299 -59 360 -59 749 0 389 5 450
59 749 91 492 270 964 530 1396 299 495 723 947 1190 1268 572 392 1194 628
1875 712 187 22 199 23 550 20 261 -3 353 -8 465 -24z"/>
<path d="M5883 9185 c-3 -9 -22 -91 -42 -182 l-37 -166 -90 -23 c-135 -34
-283 -98 -380 -165 l-40 -27 -158 100 -158 101 -79 -79 c-43 -43 -79 -82 -79
-87 0 -4 43 -75 95 -157 52 -82 95 -152 95 -154 0 -3 -21 -40 -46 -82 -74
-121 -154 -333 -154 -406 0 -24 0 -24 -198 -67 l-167 -37 -3 -116 c-2 -105 -1
-117 15 -122 10 -2 83 -19 163 -36 187 -40 186 -39 194 -89 17 -109 103 -319
171 -419 14 -20 25 -40 25 -44 0 -3 -43 -75 -97 -158 l-96 -151 83 -84 83 -83
126 81 c69 44 140 88 156 98 l31 19 54 -37 c100 -67 247 -127 420 -170 l34 -9
41 -179 40 -180 113 -3 c95 -2 113 0 118 13 4 9 23 91 43 183 l37 167 35 8
c169 42 313 100 422 170 l57 37 156 -101 157 -100 79 78 c43 42 78 82 78 88 0
5 -38 70 -85 144 -47 73 -90 142 -96 153 -8 15 -1 33 36 93 59 95 110 214 141
334 13 52 26 97 28 99 3 2 73 19 158 38 84 18 163 36 176 39 22 5 23 8 20 122
l-3 117 -175 39 c-96 22 -176 40 -177 41 -2 1 -14 45 -27 97 -30 120 -74 226
-137 330 -27 45 -49 84 -49 85 0 2 43 71 95 152 52 82 95 153 95 158 0 5 -36
45 -79 88 l-79 79 -158 -101 -157 -101 -44 30 c-100 69 -283 146 -401 169 -72
14 -60 -10 -113 233 l-32 147 -114 0 c-93 0 -115 -3 -120 -15z m228 -595 c98
-65 124 -199 58 -292 l-20 -28 30 -26 c17 -14 39 -39 48 -55 l17 -29 291 0
c214 0 297 -4 315 -13 l25 -13 3 -200 2 -200 30 -17 c49 -30 74 -74 74 -134 0
-146 -191 -209 -276 -90 -48 68 -29 176 38 218 l34 21 0 159 0 159 -260 0
-260 0 0 -35 c0 -21 -7 -41 -20 -53 -11 -10 -21 -29 -22 -43 l-3 -24 164 -3
c101 -1 170 -7 178 -13 10 -9 13 -75 13 -313 l0 -301 30 -17 c69 -39 93 -151
48 -218 -87 -126 -278 -68 -278 85 0 59 24 105 69 131 l31 18 0 263 0 263
-210 0 -210 0 0 -420 0 -419 30 -16 c99 -51 93 -216 -10 -267 -70 -35 -154
-13 -197 51 -46 69 -21 181 48 216 l29 16 0 419 0 420 -210 0 -210 0 0 -262 0
-263 30 -17 c69 -39 93 -151 48 -218 -87 -126 -278 -68 -278 84 0 60 24 105
69 132 l31 18 0 301 c0 221 3 304 12 313 8 8 63 12 181 12 l169 0 -7 28 c-4
15 -15 35 -26 45 -12 11 -19 31 -19 52 l0 35 -260 0 -260 0 0 -159 0 -159 34
-21 c85 -53 88 -192 6 -251 -42 -30 -116 -38 -158 -16 -106 55 -115 205 -17
269 l34 22 3 200 3 199 25 13 c18 9 102 13 317 13 l292 0 15 29 c9 16 29 40
46 54 l30 26 -21 36 c-64 109 -30 236 80 296 51 28 152 22 202 -11z"/>
<path d="M5929 8491 c-65 -65 -18 -181 73 -181 40 0 86 36 97 76 29 104 -94
180 -170 105z"/>
<path d="M5920 8190 c-56 -29 -98 -123 -66 -149 8 -7 20 -43 27 -82 l12 -69
107 0 107 0 12 71 c8 41 19 73 27 76 20 7 17 40 -7 90 -37 76 -139 106 -219
63z"/>
<path d="M5142 7624 c-12 -8 -22 -26 -22 -39 0 -25 24 -55 43 -55 25 0 57 32
57 55 0 20 -32 55 -50 55 -3 0 -16 -7 -28 -16z"/>
<path d="M6801 7621 c-28 -28 -26 -57 4 -77 29 -19 63 -11 74 19 8 22 -5 67
-20 67 -4 0 -14 3 -22 6 -9 3 -25 -4 -36 -15z"/>
<path d="M5446 7154 c-24 -24 -20 -61 9 -80 23 -15 27 -15 50 0 42 28 24 96
-25 96 -10 0 -26 -7 -34 -16z"/>
<path d="M6486 7154 c-24 -24 -20 -61 9 -80 23 -15 27 -15 50 0 42 28 24 96
-25 96 -10 0 -26 -7 -34 -16z"/>
<path d="M5972 6844 c-27 -18 -29 -55 -4 -77 35 -32 82 -10 82 38 0 20 -32 55
-50 55 -3 0 -16 -7 -28 -16z"/>
<path d="M3720 4505 l0 -445 213 0 c295 0 382 24 492 134 164 164 164 458 0
622 -109 109 -200 134 -497 134 l-208 0 0 -445z m512 336 c71 -27 151 -99 183
-161 53 -105 53 -245 0 -350 -32 -63 -113 -134 -183 -161 -49 -19 -81 -23
-239 -27 l-183 -4 0 367 0 367 183 -4 c158 -4 190 -8 239 -27z"/>
<path d="M5835 4717 c-63 -21 -100 -44 -129 -77 l-26 -32 0 56 0 56 -45 0 -45
0 0 -330 0 -330 44 0 44 0 4 208 c3 171 7 214 21 247 62 140 254 181 358 76
50 -50 59 -101 59 -336 l0 -195 46 0 46 0 -4 238 c-3 158 -8 247 -17 267 -43
104 -119 155 -239 161 -48 2 -92 -1 -117 -9z"/>
<path d="M6688 4716 c-49 -13 -63 -22 -115 -70 l-33 -30 0 52 0 52 -45 0 -45
0 0 -330 0 -330 44 0 45 0 3 213 c3 200 4 215 27 261 41 83 139 128 245 112
60 -9 107 -42 134 -96 21 -42 22 -56 22 -267 l0 -223 46 0 45 0 -3 248 c-3
232 -4 250 -25 288 -59 111 -198 159 -345 120z"/>
<path d="M7460 4714 c-127 -46 -201 -144 -216 -285 -23 -224 143 -391 372
-377 76 5 181 46 217 86 15 16 14 20 -10 50 l-26 33 -26 -24 c-90 -84 -256
-88 -353 -7 -36 30 -70 89 -82 143 l-6 27 281 0 282 0 -5 64 c-10 120 -76 224
-175 272 -70 35 -185 43 -253 18z m198 -80 c71 -29 141 -120 142 -181 l0 -23
-235 0 -235 0 6 28 c19 84 75 153 146 179 47 17 133 16 176 -3z"/>
<path d="M8297 4714 c-32 -10 -64 -31 -93 -59 l-44 -44 0 54 0 55 -45 0 -45 0
0 -330 0 -330 44 0 44 0 4 208 c4 221 11 257 61 311 31 34 95 61 145 61 l42 0
0 45 c0 44 -1 45 -32 44 -18 0 -55 -7 -81 -15z"/>
<path d="M4732 4483 c3 -215 5 -242 24 -283 74 -160 316 -202 450 -78 l44 41
0 -52 0 -51 45 0 45 0 0 330 0 330 -44 0 -44 0 -4 -217 c-3 -200 -5 -221 -25
-258 -35 -66 -90 -102 -171 -112 -109 -12 -200 47 -221 145 -6 29 -11 140 -11
247 l0 195 -46 0 -46 0 4 -237z"/>
</g>
</svg>
