<?xml version="1.0" standalone="no"?>
<!DOCTYPE svg PUBLIC "-//W3C//DTD SVG 20010904//EN"
 "http://www.w3.org/TR/2001/REC-SVG-20010904/DTD/svg10.dtd">
<svg version="1.0" xmlns="http://www.w3.org/2000/svg"
 width="1434.000000pt" height="1666.000000pt" viewBox="0 0 1434.000000 1666.000000"
 preserveAspectRatio="xMidYMid meet">

<g transform="translate(0.000000,1666.000000) scale(0.100000,-0.100000)"
fill="#000000" stroke="none">
<path d="M0 8330 l0 -8330 7170 0 7170 0 0 8330 0 8330 -7170 0 -7170 0 0
-8330z m6252 4973 c18 -9 45 -22 60 -30 14 -7 33 -13 42 -13 9 0 16 -4 16 -10
0 -5 11 -10 24 -10 13 0 29 -7 36 -15 7 -8 20 -15 29 -16 9 0 48 -18 86 -40
39 -21 77 -41 85 -45 8 -3 26 -12 40 -19 14 -7 47 -25 74 -39 27 -14 55 -26
61 -26 7 0 15 -7 19 -15 3 -8 14 -15 25 -15 11 0 23 -5 26 -11 4 -5 17 -15 28
-20 12 -5 45 -23 72 -40 28 -16 61 -35 75 -42 14 -6 27 -15 30 -18 3 -4 24
-17 48 -29 23 -12 42 -26 42 -31 0 -5 5 -9 11 -9 6 0 28 -13 49 -30 21 -16 41
-30 44 -30 5 0 114 -76 143 -100 7 -5 14 -10 17 -10 3 0 20 -13 38 -30 18 -16
37 -30 43 -30 6 0 17 -8 26 -17 8 -10 30 -29 48 -43 170 -131 436 -382 556
-525 32 -38 62 -72 65 -75 3 -3 28 -34 55 -70 27 -36 52 -67 55 -70 3 -3 16
-22 30 -42 14 -21 28 -38 33 -38 4 0 7 -5 7 -10 0 -6 8 -20 18 -31 11 -10 25
-32 33 -47 8 -15 16 -29 19 -32 15 -15 69 -101 75 -119 3 -11 11 -21 16 -21 5
0 9 -6 9 -14 0 -8 6 -21 13 -28 17 -17 167 -319 167 -335 0 -7 4 -13 9 -13 5
0 12 -16 15 -35 4 -19 11 -35 16 -35 6 0 10 -9 10 -19 0 -11 11 -41 24 -68 13
-26 27 -63 31 -80 3 -18 11 -35 16 -38 5 -4 9 -19 9 -34 0 -15 7 -36 15 -47 8
-10 15 -32 15 -47 0 -16 6 -41 14 -55 8 -15 18 -48 21 -74 3 -27 10 -48 16
-48 5 0 9 -21 9 -47 0 -27 7 -61 15 -77 8 -15 15 -50 15 -76 0 -27 5 -61 12
-77 7 -15 15 -71 19 -123 4 -52 12 -142 18 -200 12 -132 12 -368 0 -480 -6
-47 -13 -123 -17 -170 -4 -47 -11 -92 -17 -101 -11 -17 -124 -33 -347 -48 -69
-5 -132 -13 -140 -17 -7 -5 -67 -11 -132 -14 -83 -3 -121 -9 -124 -17 -3 -10
-35 -13 -116 -13 -79 0 -117 -4 -131 -14 -14 -9 -60 -15 -147 -17 -84 -3 -131
-8 -140 -16 -8 -9 -45 -13 -109 -13 -53 0 -109 -5 -125 -10 -16 -6 -81 -15
-144 -20 -261 -22 -337 -30 -380 -39 -25 -6 -94 -15 -155 -21 -60 -5 -157 -15
-215 -20 -58 -5 -115 -14 -128 -20 -28 -12 -132 -13 -132 -1 0 5 18 40 40 77
22 38 40 72 40 77 0 5 7 15 15 23 8 9 15 24 15 33 0 10 7 24 15 31 8 7 15 20
15 29 0 9 7 25 15 35 8 11 15 30 15 43 0 13 4 23 10 23 5 0 13 12 16 27 4 15
13 38 20 52 8 14 14 34 14 43 0 9 5 20 10 23 6 3 10 16 10 29 0 12 7 31 15 42
8 10 15 34 15 52 0 18 7 40 15 48 8 9 15 31 15 50 0 19 4 34 10 34 5 0 12 17
15 38 4 20 11 48 17 62 5 14 14 45 19 70 5 25 16 79 24 120 9 41 18 89 21 105
21 130 34 233 39 310 3 50 10 119 15 155 12 84 12 426 0 510 -5 36 -12 110
-15 165 -5 90 -26 275 -41 365 -41 247 -53 310 -64 331 -6 10 -10 35 -10 56 0
22 -7 48 -15 59 -8 10 -15 38 -15 60 0 24 -6 47 -15 54 -9 7 -15 29 -15 52 0
22 -5 48 -10 59 -6 10 -15 38 -20 61 -21 99 -33 143 -40 148 -4 3 -10 23 -13
45 -4 22 -11 41 -17 43 -5 2 -10 18 -10 35 0 18 -6 44 -14 58 -7 14 -16 42
-20 62 -4 21 -11 37 -16 37 -6 0 -10 12 -10 28 0 15 -7 36 -15 46 -8 11 -15
29 -15 41 0 12 -4 25 -8 31 -5 5 -17 32 -27 59 -10 28 -26 70 -37 95 -10 25
-24 56 -29 70 -6 14 -17 38 -25 53 -8 16 -14 35 -14 43 0 8 -7 17 -15 20 -8 4
-15 17 -15 30 0 14 -7 27 -15 30 -8 4 -15 18 -15 33 0 15 -4 31 -9 37 -5 5
-12 19 -16 32 -8 27 9 29 57 5z m-1061 -5307 c-8 -9 -40 -16 -89 -19 -103 -7
-242 -26 -267 -37 -11 -5 -50 -11 -88 -13 -37 -3 -73 -9 -80 -14 -6 -6 -50
-13 -96 -16 -47 -4 -89 -11 -95 -17 -5 -5 -37 -10 -70 -10 -35 0 -73 -7 -90
-15 -17 -9 -55 -15 -96 -15 -48 0 -73 -5 -84 -15 -10 -10 -36 -15 -83 -15 -45
0 -76 -5 -89 -15 -12 -9 -43 -15 -84 -15 -36 0 -83 -7 -105 -15 -22 -8 -70
-14 -107 -15 -64 0 -68 1 -68 23 0 13 -7 32 -15 43 -33 44 -23 49 118 62 72 7
193 17 267 23 74 5 149 12 165 14 17 3 91 10 165 15 74 6 162 14 195 19 33 5
105 10 160 11 55 0 127 7 160 15 36 9 115 15 200 16 77 0 149 4 160 9 28 12
29 12 16 -4z m387 -213 c-10 -2 -28 -2 -40 0 -13 2 -5 4 17 4 22 1 32 -1 23
-4z m-188 -34 c-19 -4 -60 -13 -90 -19 -30 -6 -62 -14 -70 -17 -13 -6 -69 -18
-185 -41 -22 -5 -50 -14 -62 -20 -12 -7 -40 -12 -62 -12 -22 0 -46 -7 -55 -15
-9 -10 -34 -15 -69 -15 -36 0 -59 -5 -67 -15 -8 -10 -31 -15 -66 -15 -29 0
-55 -4 -58 -9 -3 -5 -33 -12 -66 -16 -33 -4 -63 -11 -66 -16 -3 -5 -24 -9 -47
-9 -23 0 -55 -7 -71 -15 -15 -8 -49 -15 -75 -15 -26 0 -55 -6 -66 -14 -11 -7
-45 -16 -75 -18 -30 -3 -56 -11 -58 -17 -2 -6 -26 -11 -57 -11 -34 0 -59 -5
-69 -15 -9 -9 -33 -15 -63 -15 -28 0 -58 -6 -69 -15 -31 -23 -52 -18 -59 15
-4 17 -10 30 -15 30 -4 0 -10 15 -13 33 -7 41 13 57 72 57 25 1 73 7 106 15
33 8 79 15 102 15 23 0 54 5 70 11 15 7 64 16 108 20 44 5 122 13 173 18 52 5
99 14 105 19 7 5 54 12 105 15 52 3 99 10 105 15 7 5 54 12 105 15 52 2 99 10
105 16 6 6 44 11 86 11 48 0 87 6 105 15 18 10 56 15 105 15 52 0 83 5 97 15
12 9 41 14 79 14 54 -1 57 -2 25 -10z m-404 -339 c-28 -3 -52 -12 -54 -18 -2
-7 -21 -12 -42 -12 -21 0 -51 -7 -66 -15 -16 -8 -39 -15 -52 -15 -12 0 -30 -4
-40 -9 -9 -5 -44 -16 -77 -25 -33 -10 -73 -22 -90 -28 -16 -6 -45 -13 -63 -15
-19 -3 -36 -12 -39 -19 -3 -9 -21 -14 -48 -14 -26 0 -47 -6 -55 -15 -8 -9 -30
-15 -57 -15 -30 0 -45 -5 -49 -15 -4 -10 -20 -15 -49 -15 -24 0 -46 -4 -49 -9
-4 -5 -25 -12 -49 -16 -23 -4 -46 -11 -52 -15 -5 -4 -30 -10 -55 -13 -24 -3
-46 -11 -48 -16 -2 -6 -19 -11 -38 -11 -27 0 -34 4 -34 19 0 10 -7 32 -15 47
-8 16 -15 38 -15 50 0 19 7 22 76 27 41 3 81 10 87 15 7 5 47 12 90 14 43 3
83 10 90 17 6 6 41 11 77 11 43 0 73 5 86 15 12 9 43 14 85 15 41 0 72 5 85
15 12 9 44 15 89 15 41 0 80 7 95 15 14 8 52 15 85 15 33 0 71 7 85 14 14 8
53 14 90 14 l65 -1 -49 -7z m2890 -550 c6 -6 55 -15 110 -20 141 -13 225 -27
237 -39 6 -6 32 -11 58 -11 29 0 51 -6 59 -15 7 -8 28 -15 46 -15 19 0 34 -4
34 -10 0 -5 17 -12 38 -15 20 -3 49 -13 64 -21 14 -8 33 -14 41 -14 8 0 28 -7
43 -15 16 -8 36 -15 45 -15 9 0 30 -7 45 -15 16 -8 37 -15 46 -15 9 0 20 -4
23 -10 3 -5 19 -10 35 -10 16 0 35 -7 44 -15 8 -8 30 -15 49 -15 19 0 40 -7
47 -15 7 -8 27 -15 44 -15 18 0 41 -7 52 -15 10 -8 37 -15 59 -15 22 0 49 -7
59 -15 11 -9 42 -15 70 -15 29 0 59 -7 70 -15 11 -8 39 -15 62 -15 24 0 55 -5
71 -11 26 -10 118 -26 203 -34 19 -2 157 -4 305 -3 149 0 280 0 292 -1 12 0
25 4 28 9 3 6 26 10 50 10 24 0 65 7 91 16 25 8 48 13 51 10 10 -10 -9 -26
-32 -26 -12 0 -25 -7 -29 -15 -3 -9 -18 -15 -40 -15 -19 0 -36 -5 -38 -11 -2
-6 -15 -13 -29 -14 -14 -2 -34 -8 -45 -13 -10 -6 -36 -14 -56 -17 -21 -3 -38
-10 -38 -15 0 -6 -18 -10 -41 -10 -23 0 -55 -6 -72 -14 -18 -8 -68 -16 -112
-19 -46 -2 -81 -9 -83 -16 -6 -17 -491 -15 -517 3 -12 8 -53 14 -105 15 -46 1
-91 7 -98 13 -7 6 -43 13 -80 16 -37 2 -76 11 -87 18 -11 8 -34 14 -51 14 -17
0 -45 7 -60 15 -16 8 -41 15 -56 15 -15 0 -30 5 -33 10 -3 6 -26 10 -50 10
-29 0 -45 5 -49 15 -3 10 -19 15 -45 15 -25 0 -41 5 -45 15 -3 10 -19 15 -45
15 -25 0 -41 5 -45 15 -3 9 -18 15 -34 15 -16 0 -35 7 -42 15 -7 8 -23 15 -35
15 -13 0 -36 7 -51 15 -16 8 -41 15 -57 15 -15 0 -35 4 -45 9 -9 6 -38 13 -64
16 -26 3 -50 10 -53 16 -4 5 -38 9 -76 9 -40 0 -81 6 -97 14 -51 26 -786 27
-796 0 -3 -8 -32 -14 -83 -17 -91 -6 -199 -23 -228 -36 -11 -5 -31 -12 -45
-15 -58 -12 -117 -29 -142 -42 -14 -8 -38 -14 -52 -14 -15 0 -29 -7 -32 -15
-4 -9 -19 -15 -39 -15 -18 0 -38 -7 -45 -15 -7 -8 -24 -15 -39 -15 l-26 1 25
19 c41 33 43 34 84 55 21 11 40 26 43 33 3 6 13 12 23 12 10 0 23 7 30 15 7 8
21 15 32 15 10 0 21 7 24 15 4 8 14 15 25 15 10 0 39 11 64 25 26 13 62 27 81
31 19 3 34 10 34 15 0 5 11 9 24 9 13 0 29 7 36 15 7 8 25 15 39 15 15 0 36 7
47 15 10 8 33 15 49 15 17 0 39 7 49 15 11 8 34 15 52 15 17 0 48 7 67 15 20
8 54 15 76 15 22 0 42 3 45 8 2 4 33 8 68 10 88 3 151 12 168 23 21 12 293 12
306 -1z m-2902 -315 c15 -11 48 -15 125 -15 73 -1 114 -5 131 -15 14 -8 50
-14 80 -15 31 0 61 -5 67 -11 6 -6 35 -14 64 -19 30 -4 79 -17 109 -29 30 -12
67 -21 82 -21 16 0 28 -4 28 -10 0 -5 17 -12 38 -15 20 -3 50 -12 65 -20 16
-8 38 -15 50 -15 12 0 31 -7 41 -15 11 -8 31 -15 45 -15 14 0 35 -7 45 -15 11
-8 32 -15 46 -15 14 0 30 -4 36 -10 11 -11 85 -29 151 -37 23 -3 47 -11 54
-19 6 -8 30 -14 53 -14 23 0 51 -6 62 -14 11 -8 46 -16 78 -17 32 -1 61 -8 67
-16 7 -8 34 -13 68 -13 31 -1 67 -7 81 -15 15 -9 53 -14 96 -15 41 0 83 -6 98
-14 15 -7 61 -14 104 -15 42 -1 111 -5 152 -9 166 -14 568 1 612 24 15 8 53
14 84 14 49 0 55 -2 44 -15 -7 -8 -23 -15 -37 -15 -13 0 -26 -7 -29 -15 -4
-10 -20 -15 -44 -15 -23 0 -40 -5 -43 -14 -3 -8 -25 -16 -49 -19 -57 -7 -139
-26 -160 -37 -9 -5 -49 -12 -90 -16 -40 -3 -75 -10 -78 -14 -3 -4 -70 -10
-149 -13 -83 -3 -148 -10 -154 -16 -15 -15 -204 -15 -209 0 -2 7 -63 13 -163
16 -88 3 -165 9 -171 14 -6 5 -43 11 -83 14 -41 3 -81 9 -90 14 -9 5 -44 12
-79 16 -34 4 -65 11 -68 16 -3 5 -29 9 -59 9 -38 0 -54 4 -59 15 -4 10 -19 15
-49 15 -27 0 -49 6 -57 15 -7 8 -29 15 -50 15 -21 0 -43 7 -50 15 -7 8 -25 15
-40 15 -16 0 -41 6 -57 14 -15 8 -48 20 -73 26 -25 7 -60 18 -78 26 -18 8 -45
14 -60 14 -16 0 -37 7 -48 15 -10 8 -37 15 -59 15 -22 0 -49 7 -59 15 -11 8
-40 15 -65 15 -25 0 -55 7 -65 15 -13 10 -43 15 -85 15 -36 0 -84 7 -106 15
-27 9 -83 14 -172 15 -77 0 -134 4 -138 10 -4 6 -65 10 -150 10 -85 0 -146 -4
-150 -10 -4 -6 -67 -10 -156 -10 -110 0 -159 -4 -186 -15 -21 -9 -67 -15 -115
-15 -61 0 -80 -3 -84 -15 -5 -11 -22 -15 -69 -15 -47 0 -64 -4 -69 -15 -4 -11
-20 -15 -54 -15 -32 0 -54 -5 -62 -15 -7 -8 -27 -15 -44 -15 -32 0 -140 -31
-152 -43 -4 -4 -20 -7 -34 -7 -15 0 -33 -7 -40 -15 -15 -19 -72 -21 -64 -2 2
6 26 22 52 35 26 12 54 26 62 31 8 5 22 12 30 15 8 3 22 10 30 15 25 15 124
59 148 66 12 3 22 11 22 16 0 5 9 9 21 9 11 0 33 6 47 13 15 8 42 21 60 30 19
9 45 17 60 17 14 0 33 7 42 15 9 8 31 15 49 17 18 1 35 6 37 10 3 4 14 8 26 8
11 0 34 6 51 14 18 8 52 17 77 19 24 3 46 11 48 16 2 6 31 11 65 11 35 1 73 7
87 15 16 9 57 15 120 15 58 1 107 6 125 15 45 20 412 20 439 0z m2916 -400
c-7 -8 -17 -15 -22 -15 -11 0 14 29 26 30 5 0 3 -7 -4 -15z m-4636 -30 c-4 -8
-12 -15 -20 -15 -8 0 -11 6 -8 15 4 8 12 15 20 15 8 0 11 -6 8 -15z m2386
-596 c114 -36 200 -111 250 -217 26 -55 30 -73 30 -153 0 -86 -10 -128 -41
-179 -5 -8 -12 -22 -16 -30 -12 -30 -110 -117 -154 -137 -93 -43 -156 -53
-341 -53 -97 0 -183 3 -192 6 -14 5 -16 49 -16 388 0 211 3 386 7 390 13 13
425 0 473 -15z m645 11 c4 -6 0 -32 -8 -58 -43 -138 -55 -393 -24 -506 26 -94
53 -128 116 -147 34 -10 52 -10 87 -1 52 14 73 31 105 87 23 39 24 48 29 335
l5 295 103 3 102 3 0 -218 c0 -181 -4 -230 -19 -290 -27 -103 -66 -165 -136
-219 -73 -55 -117 -68 -229 -68 -91 1 -106 4 -152 28 -51 28 -119 87 -141 122
-74 118 -103 280 -68 379 8 22 15 50 15 62 0 21 10 47 49 133 29 63 39 70 102
70 32 0 61 -5 64 -10z m847 -4 c7 -7 45 -48 83 -91 39 -43 75 -83 80 -89 6 -6
41 -47 79 -91 133 -154 220 -245 233 -245 10 0 13 50 13 254 0 277 1 281 57
274 l28 -3 0 -390 0 -390 -60 -3 -61 -3 -54 62 c-30 34 -59 67 -65 73 -6 6
-31 34 -56 62 -24 27 -69 79 -100 115 -31 35 -73 81 -92 102 -20 20 -52 57
-72 81 -63 77 -65 69 -65 -224 0 -253 0 -259 -21 -265 -11 -4 -31 -4 -45 -1
l-24 6 0 384 c0 210 3 386 7 389 12 13 121 7 135 -7z m941 -28 c42 -52 53 -64
144 -164 39 -44 109 -123 156 -176 131 -148 134 -151 151 -145 14 5 16 40 18
264 l3 258 38 3 37 3 -2 -393 -3 -393 -58 -3 c-54 -3 -60 -1 -90 31 -34 36
-127 141 -196 221 -23 27 -48 54 -54 61 -21 21 -80 87 -141 158 -46 53 -62 65
-72 56 -11 -9 -14 -67 -16 -267 -3 -240 -4 -257 -21 -260 -10 -2 -29 -1 -43 2
l-24 6 0 384 c0 210 3 386 7 389 3 4 34 7 68 7 61 0 63 -1 98 -42z m1297 2 l0
-40 -165 0 -165 0 -10 -26 c-15 -39 -13 -219 3 -232 7 -7 66 -13 133 -14 l119
-3 3 -28 c6 -51 -9 -57 -138 -57 -98 0 -119 -3 -124 -16 -12 -30 -6 -210 7
-227 10 -14 36 -17 172 -19 l160 -3 0 -40 0 -40 -270 0 -270 0 -3 393 -2 392
275 0 275 0 0 -40z m660 21 c139 -49 195 -167 140 -295 -25 -60 -64 -97 -145
-137 -36 -17 -68 -35 -70 -40 -9 -14 70 -119 150 -199 43 -44 82 -80 87 -80 4
0 8 -4 8 -10 0 -13 -205 -13 -230 0 -37 20 -123 170 -136 236 -7 41 -35 67
-66 62 -23 -3 -23 -5 -28 -153 l-5 -150 -80 -3 c-44 -2 -90 0 -102 3 l-23 5 0
384 c0 210 3 386 7 389 3 4 104 7 223 7 187 0 223 -3 270 -19z"/>
<path d="M6630 12840 c-12 -22 -5 -60 11 -60 5 0 9 -10 9 -22 0 -13 7 -32 15
-42 8 -11 15 -30 15 -42 0 -12 7 -27 15 -34 8 -7 15 -20 15 -30 0 -17 16 -62
46 -127 8 -17 14 -38 14 -46 0 -9 5 -19 10 -22 6 -3 10 -16 10 -28 0 -12 7
-35 15 -51 8 -15 15 -35 15 -43 0 -8 6 -29 14 -46 7 -18 18 -52 25 -77 6 -25
19 -70 27 -100 9 -30 20 -71 24 -90 5 -19 16 -62 25 -95 9 -33 21 -87 27 -120
5 -33 13 -62 18 -65 4 -3 10 -34 13 -70 3 -35 10 -66 16 -68 6 -2 11 -31 11
-69 0 -36 6 -79 14 -96 8 -18 17 -77 20 -132 3 -55 9 -122 15 -150 17 -84 13
-707 -4 -790 -8 -38 -15 -100 -15 -136 0 -40 -6 -78 -15 -95 -8 -16 -15 -54
-15 -86 0 -31 -5 -58 -10 -60 -6 -2 -13 -28 -17 -58 -3 -29 -12 -65 -20 -79
-7 -15 -13 -35 -13 -45 0 -23 -112 -359 -122 -366 -3 -3 -10 -19 -14 -35 -4
-17 -13 -39 -20 -50 -8 -11 -14 -27 -14 -37 0 -10 -4 -18 -10 -18 -5 0 -10 -7
-10 -16 0 -16 -24 -65 -46 -94 -19 -25 -25 -90 -9 -90 21 0 45 11 45 21 0 4
14 22 30 39 17 17 30 37 30 45 0 8 14 28 30 45 17 17 30 37 30 45 0 8 4 15 9
15 5 0 14 12 20 28 6 15 25 50 41 77 17 28 33 57 36 65 3 8 12 28 20 43 7 16
14 37 14 47 0 10 7 20 15 24 8 3 15 14 15 24 0 11 7 25 15 32 8 7 15 19 15 26
0 8 4 22 10 32 18 33 47 107 65 167 10 33 21 64 26 69 5 6 9 24 9 40 1 17 7
42 15 56 8 14 14 39 15 56 0 18 7 45 15 60 8 16 15 49 15 75 0 25 5 50 11 56
6 6 15 53 20 105 4 51 13 116 18 143 13 65 13 545 0 610 -5 28 -14 95 -19 150
-5 55 -14 101 -20 103 -5 2 -10 27 -10 55 0 29 -7 65 -15 81 -8 15 -15 45 -15
65 -1 20 -7 47 -15 61 -8 14 -14 36 -15 49 0 23 -25 110 -41 142 -4 9 -11 33
-14 53 -4 20 -11 39 -16 42 -5 3 -9 13 -9 22 0 9 -7 30 -15 46 -8 15 -15 36
-15 46 0 10 -7 25 -15 34 -8 8 -15 24 -15 36 0 11 -7 23 -15 26 -8 4 -15 17
-15 31 0 14 -6 37 -14 51 -7 15 -18 38 -24 52 -12 29 -138 288 -152 310 -5 8
-11 22 -15 30 -3 8 -11 24 -18 35 -7 12 -41 69 -76 128 -35 59 -67 107 -72
107 -4 0 -13 -9 -19 -20z"/>
<path d="M5381 5472 c-13 -25 -15 -620 -2 -641 7 -10 26 -13 82 -9 80 6 115
20 165 68 101 95 124 311 49 457 -27 53 -100 110 -155 122 -114 24 -127 25
-139 3z"/>
<path d="M9745 5469 c-3 -8 -4 -91 -3 -184 l3 -170 58 -3 c69 -4 113 19 152
76 22 32 25 48 25 122 0 91 -9 111 -62 144 -36 23 -166 34 -173 15z"/>
</g>
</svg>
